<svg id="site-logo-svg" xmlns="http://www.w3.org/2000/svg" viewBox="0 0 180 180"
                 enable-background="new 0 0 180 180">
                <path stroke="#fff" stroke-miterlimit="10"
                      d="M177.9 37.3v103.6c0 2.7-2.2 4.9-4.9 4.9h-165.8c-2.7 0-4.9-2.2-4.9-4.9v-103.6c0-2.7 2.2-4.9 4.9-4.9h165.8c2.8 0 4.9 2.2 4.9 4.9z"
                      fill="none"/>
                <g stroke="#F1F2F2" fill="none">
                    <path d="M131.8 130.7h.4v.6h-.4v-.6zM134.2 119.1v4.9c.4-.9 1.5-1.3 2.5-1.3h1.2c1.2.2 2.4.8 2.4 2.2v4.3c0 1.1-.9 1.8-1.9 2-.9.2-1.8.2-2.6 0-.6-.2-1.3-.5-1.6-1.1v1.2h-.3v-12.2h.3zm5.8 5.8c0-1.2-1.2-1.7-2.2-1.8-.4 0-.7-.1-1.1 0-.4 0-.7.1-1 .2-.8.3-1.5.8-1.5 1.7v4.3c0 1 .9 1.5 1.7 1.8.8.2 1.6.2 2.4 0 .9-.2 1.7-.8 1.7-1.8v-4.4zM147.9 130.3c-.9 1-2.3 1.2-3.5 1-.8-.1-1.6-.4-2.1-1.1-.2-.3-.3-.7-.3-1.1v-4.2c0-1.1.9-1.8 1.9-2 .4-.1.9-.1 1.3-.1.7 0 1.4.1 1.9.4 1.6.8 1.8 3.2.2 4-.5.3-1.2.5-2 .5h-3v1.5c0 .4.1.7.3.9.4.5 1.1.9 1.8 1 1.1.2 2.5 0 3.3-.9l.2.1zm-2.7-3c.8 0 1.4-.1 1.9-.4 1.3-.8 1.2-2.8-.2-3.6-.5-.3-1.2-.4-1.8-.4-.4 0-.8 0-1.2.1-.9.2-1.7.8-1.7 1.8v2.4l3 .1zM150.8 119.1h.3v3.7h2.2v.3h-2.2v6c0 1.4 1.1 1.9 2.3 2v.3c-1.4 0-2.6-.7-2.6-2.3v-6h-1.8v-.3h1.8v-3.7zM154.6 123.8c1.5-1.8 5.9-1.4 5.9 1.2v4.9c0 .6.3 1.2.9 1.2v.3c-.7 0-1.1-.4-1.2-1-.5.9-1.8 1.1-2.9 1.1-.7 0-1.3-.1-1.9-.4-1.6-.8-1.8-3.2-.2-4.1.5-.3 1.2-.4 2-.4h3v-1.4c0-2.3-4-2.6-5.4-1.1l-.2-.3zm2.7 2.9c-.8 0-1.4.2-1.9.5-1.3.8-1.2 2.9.2 3.6.5.3 1.1.4 1.8.4 1.2 0 2.9-.3 2.9-1.8v-2.7h-3z"/>
                </g>
                <g stroke="#FCFCFC" fill="none">
                    <path d="M81.4 79.2v33.7h-.9v-24.3l-13.9-8.2v32.4h-.6v-33.6l14.5 8.6v-8.6h.9zM85.3 93.8c0-11 2.4-14.6 7.7-14.6 5.5 0 7.7 3.5 7.7 14.6v4.4c0 9.4-2.1 14.8-7.7 14.8-5.9 0-7.8-5.6-7.7-14.8v-4.4zm14.7-1.8c.3-7.4-1.7-12.1-6.9-12.1-5 0-7.1 4.1-6.9 12.1v7.9c0 7.4 2.3 12 6.9 12.1 4.7.1 6.7-4.8 6.9-12.1v-7.9zM118.9 89.3v-.9c-.2-4.4-2-8.5-7-8.5-4.8 0-6.8 4-7 8.5v4.3l14.8 3.7v7.1c0 5.1-2.7 9.4-7.8 9.4-5.8 0-7.8-3.8-7.8-9.4v-.9h.8v.9c.1 5.4 2.5 8.3 7 8.5 4.8.2 7-4.6 7-8.5v-6.5l-14.8-3.5v-5c0-4.8 2-9.3 7.8-9.3s7.8 4.3 7.8 9.3v.9h-.8zM125.1 113v-33.9h.9v33.9h-.9zM144.5 88.7c0 2.7-3 4.8-6.7 4.8h-5.9l12.6 3.6v10.9c0 2.7-3 4.8-6.7 4.8h-6.8v-33.7h6.8c3.7 0 6.7 2.2 6.7 4.8v4.8zm-.9-4.8c0-2.5-2.3-4.3-5.8-4.3h-6v13.4h6c3.5 0 5.8-1.8 5.8-4.3v-4.8zm0 13.8l-11.9-3.4v18h6.1c3.5 0 5.8-1.8 5.8-4.3v-10.3zM148.9 79.2h12.5v.7h-11.8v13.5h11.2v.5h-11.2v18.3h11.8v.7h-12.5v-33.7zM24 46.2l34 18.7v24h4.2v25.4h-4.2v-21.3h-34v21.3h-4.5v-25.4h4.5v-42.7zm29.7 42.6v-22.3l-25.8-13.5v35.8h25.8z"/>
                </g>
            </svg>